# xmcd CD database file
#
# Track frame offsets:
#	150
#	22121
#	41619
#	55819
#	69518
#	92780
#	113761
#	131881
#	136357
#	154838
#	171037
#	189266
#	215381
#
# Disc length: 3159 seconds
#
# Revision: 0
# Processed by: cddbd v1.5.2PL0 Copyright (c) Steve Scherf et al.
# Submitted via: CDex 1.75
#
DISCID=b60c550d
DTITLE=Grace Kelly - Trying To Figure It Out
DYEAR=2016
DGENRE=Jazz
TTITLE0=Blues For Harry Bosch
TTITLE1=He Shot A Man
TTITLE2=By The Grave
TTITLE3=Ballad For MC
TTITLE4=Trying To Figure It Out
TTITLE5=Smile
TTITLE6=Somewhere Over The Rainbow
TTITLE7=Hey's Connection
TTITLE8=Magic
TTITLE9=The Other One
TTITLE10=Blues for Harry Bosch: Mocean Worker Remix
TTITLE11=Amazing Grace
TTITLE12=Lemons Make Lemonade
EXTD=YEAR: 2016
EXTT0=
EXTT1=
EXTT2=
EXTT3=
EXTT4=
EXTT5=
EXTT6=
EXTT7=
EXTT8=
EXTT9=
EXTT10=
EXTT11=
EXTT12=
PLAYORDER=
